<svg width="45" height="45" viewBox="0 0 45 45" fill="none" xmlns="http://www.w3.org/2000/svg">
<path d="M13.9334 2.40326C13.5215 2.18076 13.1281 1.95741 12.7475 1.74129C10.434 0.427714 8.59196 -0.618134 5.9456 0.42502C1.84197 2.04302 0 5.53159 0 8.26559C0 9.69064 0.711683 10.9464 1.56785 12.4571C2.86021 14.7375 4.48179 17.5988 4.48179 22.5C4.48179 27.4013 2.86021 30.2624 1.56785 32.5427C0.711682 34.0533 0 35.309 0 36.7341C0 39.4684 1.84163 42.957 5.9456 44.575C8.59194 45.618 10.434 44.5721 12.7476 43.2585C12.9804 43.1263 13.218 42.9914 13.4616 42.8556C19.874 38.3093 24.0503 30.8637 24.0503 22.4581C24.0503 14.2604 20.078 6.97586 13.9334 2.40326Z" fill="#092C4C"/>
<path d="M18.0584 40.8968C19.3381 40.5541 20.7965 40.3353 22.5 40.3353C27.1044 40.3353 29.9186 41.9332 32.2527 43.2586C34.5663 44.5723 36.4082 45.6181 39.0544 44.575C43.1587 42.957 45 39.4684 45 36.7341C45 35.3092 44.2884 34.0536 43.4323 32.543C42.1401 30.2626 40.5186 27.4014 40.5186 22.5C40.5186 17.5988 42.14 14.7375 43.4323 12.4571C44.2884 10.9464 45 9.69064 45 8.26559C45 5.53159 43.1587 2.04302 39.0544 0.42502C36.408 -0.618146 34.5659 0.427738 32.2523 1.74134C29.9181 3.06659 27.1041 4.66433 22.5 4.66433C20.8444 4.66433 19.4203 4.45775 18.1667 4.13154C22.7467 8.89834 25.5587 15.3524 25.5587 22.4581C25.5587 29.6196 22.7024 36.1193 18.0584 40.8968Z" fill="#8ABBCB"/>
<path d="M30.6752 27.6703L27.8176 24.3666V27.6703H26.6066V20.2874H27.8176V23.6549L30.6858 20.2874H32.2049L28.9968 23.9842L32.258 27.6703H30.6752ZM39.2247 20.2874V27.6703H38.0137V24.441H34.54V27.6703H33.329V20.2874H34.54V23.453H38.0137V20.2874H39.2247Z" fill="white"/>
<path d="M12.6056 20.2874V21.2753H10.6404V27.6703H9.42938V21.2753H7.45351V20.2874H12.6056ZM17.667 27.6703L15.9673 24.7172H15.0431V27.6703H13.8321V20.2874H16.3816C16.9482 20.2874 17.4262 20.3865 17.8157 20.5848C18.2123 20.7831 18.5062 21.0487 18.6974 21.3816C18.8957 21.7144 18.9949 22.0862 18.9949 22.497C18.9949 22.9785 18.8532 23.4176 18.5699 23.8142C18.2937 24.2037 17.8653 24.4693 17.2846 24.6109L19.1117 27.6703H17.667ZM15.0431 23.7505H16.3816C16.8349 23.7505 17.1748 23.6372 17.4014 23.4105C17.6351 23.1839 17.752 22.8794 17.752 22.497C17.752 22.1145 17.6387 21.8171 17.412 21.6046C17.1854 21.3851 16.8419 21.2753 16.3816 21.2753H15.0431V23.7505Z" fill="white"/>
</svg>